<svg xmlns="http://www.w3.org/2000/svg" viewBox="0 0 9 7" width="128" height="128">
  <style>
    rect { fill: #1A1A1A; }
    @media (prefers-color-scheme: dark) { rect { fill: #E6E6E6; } }
  </style>

  <!-- T -->
  <!-- row 0: col 1 -->
  <rect x="2" y="1" width="0.45" height="0.45" rx="0.05"/>
  <rect x="2.5" y="1" width="0.45" height="0.45" rx="0.05"/>
  <rect x="2" y="1.5" width="0.45" height="0.45" rx="0.05"/>
  <rect x="2.5" y="1.5" width="0.45" height="0.45" rx="0.05"/>
  <!-- row 1: cols 0,1,2 -->
  <rect x="1" y="2" width="0.45" height="0.45" rx="0.05"/>
  <rect x="1.5" y="2" width="0.45" height="0.45" rx="0.05"/>
  <rect x="1" y="2.5" width="0.45" height="0.45" rx="0.05"/>
  <rect x="1.5" y="2.5" width="0.45" height="0.45" rx="0.05"/>
  <rect x="2" y="2" width="0.45" height="0.45" rx="0.05"/>
  <rect x="2.5" y="2" width="0.45" height="0.45" rx="0.05"/>
  <rect x="2" y="2.5" width="0.45" height="0.45" rx="0.05"/>
  <rect x="2.5" y="2.5" width="0.45" height="0.45" rx="0.05"/>
  <rect x="3" y="2" width="0.45" height="0.45" rx="0.05"/>
  <rect x="3.5" y="2" width="0.45" height="0.45" rx="0.05"/>
  <rect x="3" y="2.5" width="0.45" height="0.45" rx="0.05"/>
  <rect x="3.5" y="2.5" width="0.45" height="0.45" rx="0.05"/>
  <!-- row 2: col 1 -->
  <rect x="2" y="3" width="0.45" height="0.45" rx="0.05"/>
  <rect x="2.5" y="3" width="0.45" height="0.45" rx="0.05"/>
  <rect x="2" y="3.5" width="0.45" height="0.45" rx="0.05"/>
  <rect x="2.5" y="3.5" width="0.45" height="0.45" rx="0.05"/>
  <!-- row 3: col 1 -->
  <rect x="2" y="4" width="0.45" height="0.45" rx="0.05"/>
  <rect x="2.5" y="4" width="0.45" height="0.45" rx="0.05"/>
  <rect x="2" y="4.5" width="0.45" height="0.45" rx="0.05"/>
  <rect x="2.5" y="4.5" width="0.45" height="0.45" rx="0.05"/>
  <!-- row 4: cols 1,2 -->
  <rect x="2" y="5" width="0.45" height="0.45" rx="0.05"/>
  <rect x="2.5" y="5" width="0.45" height="0.45" rx="0.05"/>
  <rect x="2" y="5.5" width="0.45" height="0.45" rx="0.05"/>
  <rect x="2.5" y="5.5" width="0.45" height="0.45" rx="0.05"/>
  <rect x="3" y="5" width="0.45" height="0.45" rx="0.05"/>
  <rect x="3.5" y="5" width="0.45" height="0.45" rx="0.05"/>
  <rect x="3" y="5.5" width="0.45" height="0.45" rx="0.05"/>
  <rect x="3.5" y="5.5" width="0.45" height="0.45" rx="0.05"/>

  <!-- D -->
  <!-- row 0: col 2 -->
  <rect x="7" y="1" width="0.45" height="0.45" rx="0.05"/>
  <rect x="7.5" y="1" width="0.45" height="0.45" rx="0.05"/>
  <rect x="7" y="1.5" width="0.45" height="0.45" rx="0.05"/>
  <rect x="7.5" y="1.5" width="0.45" height="0.45" rx="0.05"/>
  <!-- row 1: col 2 -->
  <rect x="7" y="2" width="0.45" height="0.45" rx="0.05"/>
  <rect x="7.5" y="2" width="0.45" height="0.45" rx="0.05"/>
  <rect x="7" y="2.5" width="0.45" height="0.45" rx="0.05"/>
  <rect x="7.5" y="2.5" width="0.45" height="0.45" rx="0.05"/>
  <!-- row 2: cols 0,1,2 -->
  <rect x="5" y="3" width="0.45" height="0.45" rx="0.05"/>
  <rect x="5.5" y="3" width="0.45" height="0.45" rx="0.05"/>
  <rect x="5" y="3.5" width="0.45" height="0.45" rx="0.05"/>
  <rect x="5.5" y="3.5" width="0.45" height="0.45" rx="0.05"/>
  <rect x="6" y="3" width="0.45" height="0.45" rx="0.05"/>
  <rect x="6.5" y="3" width="0.45" height="0.45" rx="0.05"/>
  <rect x="6" y="3.5" width="0.45" height="0.45" rx="0.05"/>
  <rect x="6.5" y="3.5" width="0.45" height="0.45" rx="0.05"/>
  <rect x="7" y="3" width="0.45" height="0.45" rx="0.05"/>
  <rect x="7.5" y="3" width="0.45" height="0.45" rx="0.05"/>
  <rect x="7" y="3.5" width="0.45" height="0.45" rx="0.05"/>
  <rect x="7.5" y="3.5" width="0.45" height="0.45" rx="0.05"/>
  <!-- row 3: cols 0,2 -->
  <rect x="5" y="4" width="0.45" height="0.45" rx="0.05"/>
  <rect x="5.5" y="4" width="0.45" height="0.45" rx="0.05"/>
  <rect x="5" y="4.5" width="0.45" height="0.45" rx="0.05"/>
  <rect x="5.5" y="4.5" width="0.45" height="0.45" rx="0.05"/>
  <rect x="7" y="4" width="0.45" height="0.45" rx="0.05"/>
  <rect x="7.5" y="4" width="0.45" height="0.45" rx="0.05"/>
  <rect x="7" y="4.5" width="0.45" height="0.45" rx="0.05"/>
  <rect x="7.5" y="4.5" width="0.45" height="0.45" rx="0.05"/>
  <!-- row 4: cols 0,1,2 -->
  <rect x="5" y="5" width="0.45" height="0.45" rx="0.05"/>
  <rect x="5.5" y="5" width="0.45" height="0.45" rx="0.05"/>
  <rect x="5" y="5.5" width="0.45" height="0.45" rx="0.05"/>
  <rect x="5.5" y="5.5" width="0.45" height="0.45" rx="0.05"/>
  <rect x="6" y="5" width="0.45" height="0.45" rx="0.05"/>
  <rect x="6.5" y="5" width="0.45" height="0.45" rx="0.05"/>
  <rect x="6" y="5.5" width="0.45" height="0.45" rx="0.05"/>
  <rect x="6.5" y="5.5" width="0.45" height="0.45" rx="0.05"/>
  <rect x="7" y="5" width="0.45" height="0.45" rx="0.05"/>
  <rect x="7.5" y="5" width="0.45" height="0.45" rx="0.05"/>
  <rect x="7" y="5.5" width="0.45" height="0.45" rx="0.05"/>
  <rect x="7.5" y="5.5" width="0.45" height="0.45" rx="0.05"/>
</svg>
